<svg width="12" height="12" viewBox="0 0 12 12" fill="none" xmlns="http://www.w3.org/2000/svg">
<path d="M6.61913 8.35126H5.16038C4.86413 8.35126 4.62038 8.59126 4.62413 8.88751V10.3463C4.62413 10.6425 4.86413 10.8825 5.16038 10.8825H5.25338C5.3166 10.9952 5.40871 11.0891 5.52022 11.1544C5.63174 11.2197 5.75864 11.2541 5.88788 11.2541C6.01711 11.2541 6.14401 11.2197 6.25553 11.1544C6.36705 11.0891 6.45915 10.9952 6.52238 10.8825H6.61913C6.91538 10.8825 7.15538 10.6425 7.15538 10.3463V8.88751C7.15538 8.59126 6.91538 8.35126 6.61913 8.35126Z" fill="#9B9B9B"/>
<path d="M6.81039 8.67375C6.90039 8.67375 6.97164 8.60625 6.97914 8.52C7.00539 8.1975 7.14414 7.41375 7.90164 6.57375C8.26316 6.28923 8.5601 5.93114 8.77279 5.52321C8.98549 5.11527 9.10908 4.6668 9.13539 4.2075C9.14289 4.1175 9.14664 4.0575 9.14664 4.02V3.9825C9.12414 2.19 7.67289 0.75 5.88414 0.75C5.02568 0.749954 4.20188 1.08865 3.5917 1.6925C2.98153 2.29636 2.63428 3.11659 2.62539 3.975C2.62539 3.975 2.62164 4.065 2.63664 4.215C2.69664 5.1675 3.16164 6.01125 3.87039 6.57C4.62789 7.41375 4.77789 8.1975 4.80414 8.52C4.81164 8.60625 4.88289 8.67375 4.97289 8.67375H6.81039Z" fill="#FCD53F"/>
<path d="M5.88788 4.01251C6.49538 4.01251 6.99038 4.50376 6.99788 5.11126V5.14126C6.99788 5.15251 6.99788 5.16751 6.99413 5.19001C6.97538 5.50501 6.82163 5.80126 6.57413 5.99626L6.54788 6.01501L6.52538 6.03751C6.11288 6.49501 6.02663 7.65751 6.01163 8.29501H5.76788C5.74913 7.65751 5.65913 6.49501 5.24663 6.03751L5.22413 6.01501L5.19788 5.99626C5.07401 5.89831 4.97248 5.77505 4.90005 5.63472C4.82762 5.49439 4.78597 5.34022 4.77788 5.18251C4.77788 5.16751 4.77413 5.15626 4.77413 5.14876V5.11501C4.78538 4.50751 5.28413 4.01251 5.88788 4.01251ZM5.88788 3.63751C5.57929 3.63762 5.27841 3.73386 5.02704 3.91286C4.77568 4.09185 4.58631 4.3447 4.48527 4.63628C4.38423 4.92785 4.37653 5.24366 4.46325 5.5398C4.54996 5.83595 4.72678 6.09773 4.96913 6.28876C5.41913 6.79126 5.39663 8.67376 5.39663 8.67376H6.38663C6.38663 8.67376 6.35663 6.79126 6.81038 6.29251C7.13288 6.03751 7.34663 5.65126 7.37288 5.21251C7.37663 5.17126 7.37663 5.14501 7.37663 5.12626V5.11126C7.37267 4.71903 7.21408 4.3442 6.93531 4.06824C6.65655 3.79228 6.28013 3.63749 5.88788 3.63751Z" fill="#FFB02E"/>
<path d="M7.18763 9.39488C7.21191 9.39065 7.23512 9.38167 7.25593 9.36847C7.27674 9.35526 7.29474 9.33809 7.30891 9.31793C7.32309 9.29777 7.33315 9.27501 7.33853 9.25096C7.3439 9.22691 7.34449 9.20203 7.34026 9.17776C7.33602 9.15348 7.32705 9.13027 7.31384 9.10946C7.30064 9.08865 7.28347 9.07065 7.2633 9.05648C7.24314 9.0423 7.22039 9.03224 7.19634 9.02686C7.17229 9.02148 7.14741 9.0209 7.12313 9.02513L4.59563 9.46763C4.57135 9.47187 4.54815 9.48084 4.52734 9.49405C4.50653 9.50725 4.48853 9.52442 4.47435 9.54458C4.46018 9.56475 4.45012 9.5875 4.44474 9.61155C4.43936 9.6356 4.43877 9.66048 4.44301 9.68476C4.44724 9.70903 4.45622 9.73224 4.46942 9.75305C4.48263 9.77386 4.4998 9.79186 4.51996 9.80604C4.54012 9.82021 4.56288 9.83027 4.58693 9.83565C4.61098 9.84103 4.63585 9.84162 4.66013 9.83738L7.18763 9.39488ZM7.16888 10.2011C7.21731 10.192 7.26018 10.1641 7.28823 10.1236C7.31629 10.0831 7.32726 10.0332 7.31879 9.98464C7.31031 9.93609 7.28306 9.89284 7.24294 9.86422C7.20281 9.83561 7.15304 9.82395 7.10438 9.83176L4.61063 10.2705C4.58556 10.2738 4.56141 10.2822 4.53964 10.2951C4.51788 10.308 4.49895 10.3251 4.48399 10.3455C4.46904 10.3659 4.45836 10.3891 4.45261 10.4138C4.44686 10.4384 4.44616 10.4639 4.45054 10.4889C4.45492 10.5138 4.46429 10.5375 4.4781 10.5587C4.49191 10.5799 4.50986 10.5981 4.53088 10.6122C4.55189 10.6263 4.57554 10.6359 4.6004 10.6406C4.62526 10.6453 4.6508 10.6449 4.67551 10.6395L7.16888 10.2011Z" fill="#D3D3D3"/>
<path d="M5.17163 2.03999C4.75538 2.75999 4.96538 3.65999 5.64038 4.04624C6.31538 4.43249 7.19663 4.16624 7.61288 3.44624C8.02913 2.72624 7.81913 1.82624 7.14413 1.43999C6.46913 1.05374 5.58788 1.31999 5.17163 2.03999Z" fill="#FFF478"/>
</svg>
